<svg xmlns="http://www.w3.org/2000/svg" viewBox="0 0 512 512">
  <defs>
    <linearGradient id="bg" x1="0%" y1="0%" x2="100%" y2="100%">
      <stop offset="0%" style="stop-color:#2196F3;stop-opacity:1" />
      <stop offset="100%" style="stop-color:#1976D2;stop-opacity:1" />
    </linearGradient>
  </defs>
  
  <!-- Background -->
  <rect width="512" height="512" fill="url(#bg)" rx="80"/>
  
  <!-- Infinity symbol (subtle background) -->
  <path d="M 150 256 Q 150 200, 200 200 Q 250 200, 256 256 Q 262 200, 312 200 Q 362 200, 362 256 Q 362 312, 312 312 Q 262 312, 256 256 Q 250 312, 200 312 Q 150 312, 150 256 Z" 
        fill="none" stroke="rgba(255,255,255,0.2)" stroke-width="30" stroke-linecap="round"/>
  
  <!-- Chess Queen -->
  <g fill="white">
    <!-- Crown top spikes -->
    <circle cx="256" cy="160" r="12" fill="#FFD700"/>
    <circle cx="220" cy="180" r="10" fill="#FFD700"/>
    <circle cx="292" cy="180" r="10" fill="#FFD700"/>
    
    <!-- Crown -->
    <polygon points="220,190 235,220 277,220 292,190 286,200 256,200 226,200"/>
    <rect x="235" y="220" width="42" height="50" rx="3"/>
    
    <!-- Neck -->
    <path d="M 230 270 L 220 300 L 292 300 L 282 270 Z"/>
    
    <!-- Base -->
    <rect x="210" y="300" width="92" height="30" rx="5"/>
    
    <!-- Decorative elements -->
    <circle cx="256" cy="245" r="8" fill="#2196F3"/>
  </g>
  
  <!-- Text below (optional) -->
  <text x="256" y="420" font-family="Arial, sans-serif" font-size="48" font-weight="bold" fill="white" text-anchor="middle">♛∞</text>
</svg>
